<mxfile host="Electron" modified="2024-01-07T13:47:50.896Z" agent="Mozilla/5.0 (Windows NT 10.0; Win64; x64) AppleWebKit/537.36 (KHTML, like Gecko) draw.io/22.1.16 Chrome/120.0.6099.109 Electron/28.1.0 Safari/537.36" etag="NO-tPwF6LKAlmxrcy_T9" version="22.1.16" type="device">
  <diagram name="第 1 页" id="ae1aj45LuLobjPhHCm8j">
    <mxGraphModel dx="1280" dy="679" grid="1" gridSize="10" guides="1" tooltips="1" connect="1" arrows="1" fold="1" page="1" pageScale="1" pageWidth="827" pageHeight="1169" math="0" shadow="0">
      <root>
        <mxCell id="0" />
        <mxCell id="1" parent="0" />
        <mxCell id="RzUvIfsAvGJaE9H9nIL3-9" value="" style="group" vertex="1" connectable="0" parent="1">
          <mxGeometry x="250" y="460" width="70" height="100" as="geometry" />
        </mxCell>
        <mxCell id="RzUvIfsAvGJaE9H9nIL3-11" value="" style="group" vertex="1" connectable="0" parent="RzUvIfsAvGJaE9H9nIL3-9">
          <mxGeometry width="70" height="80" as="geometry" />
        </mxCell>
        <mxCell id="RzUvIfsAvGJaE9H9nIL3-12" value="" style="rounded=0;whiteSpace=wrap;html=1;fillColor=#f8cecc;strokeColor=#b85450;" vertex="1" parent="RzUvIfsAvGJaE9H9nIL3-11">
          <mxGeometry width="70" height="80" as="geometry" />
        </mxCell>
        <mxCell id="RzUvIfsAvGJaE9H9nIL3-13" value="" style="group" vertex="1" connectable="0" parent="RzUvIfsAvGJaE9H9nIL3-11">
          <mxGeometry x="10" y="10" width="50" height="60" as="geometry" />
        </mxCell>
        <mxCell id="RzUvIfsAvGJaE9H9nIL3-14" value="App" style="rounded=0;whiteSpace=wrap;html=1;fillColor=#e1d5e7;strokeColor=#9673a6;" vertex="1" parent="RzUvIfsAvGJaE9H9nIL3-13">
          <mxGeometry width="50" height="30" as="geometry" />
        </mxCell>
        <mxCell id="RzUvIfsAvGJaE9H9nIL3-15" value="OS" style="rounded=0;whiteSpace=wrap;html=1;fillColor=#ffe6cc;strokeColor=#d79b00;" vertex="1" parent="RzUvIfsAvGJaE9H9nIL3-13">
          <mxGeometry y="30" width="50" height="30" as="geometry" />
        </mxCell>
        <mxCell id="RzUvIfsAvGJaE9H9nIL3-23" style="edgeStyle=orthogonalEdgeStyle;rounded=0;orthogonalLoop=1;jettySize=auto;html=1;" edge="1" parent="RzUvIfsAvGJaE9H9nIL3-9" source="RzUvIfsAvGJaE9H9nIL3-10">
          <mxGeometry relative="1" as="geometry">
            <mxPoint x="35" y="150" as="targetPoint" />
          </mxGeometry>
        </mxCell>
        <mxCell id="RzUvIfsAvGJaE9H9nIL3-46" style="edgeStyle=orthogonalEdgeStyle;rounded=0;orthogonalLoop=1;jettySize=auto;html=1;entryX=1;entryY=0.5;entryDx=0;entryDy=0;" edge="1" parent="RzUvIfsAvGJaE9H9nIL3-9" source="RzUvIfsAvGJaE9H9nIL3-10" target="RzUvIfsAvGJaE9H9nIL3-15">
          <mxGeometry relative="1" as="geometry">
            <Array as="points">
              <mxPoint x="120" y="90" />
              <mxPoint x="120" y="55" />
            </Array>
          </mxGeometry>
        </mxCell>
        <mxCell id="RzUvIfsAvGJaE9H9nIL3-47" value="&lt;font style=&quot;font-size: 9px;&quot;&gt;模拟数据包&lt;br style=&quot;border-color: var(--border-color);&quot;&gt;到达的中断&lt;/font&gt;" style="edgeLabel;html=1;align=center;verticalAlign=middle;resizable=0;points=[];" vertex="1" connectable="0" parent="RzUvIfsAvGJaE9H9nIL3-46">
          <mxGeometry x="-0.0876" y="-3" relative="1" as="geometry">
            <mxPoint as="offset" />
          </mxGeometry>
        </mxCell>
        <mxCell id="RzUvIfsAvGJaE9H9nIL3-10" value="VMM" style="rounded=0;whiteSpace=wrap;html=1;fillColor=#dae8fc;strokeColor=#6c8ebf;" vertex="1" parent="RzUvIfsAvGJaE9H9nIL3-9">
          <mxGeometry y="80" width="70" height="20" as="geometry" />
        </mxCell>
        <mxCell id="RzUvIfsAvGJaE9H9nIL3-8" value="" style="group" vertex="1" connectable="0" parent="1">
          <mxGeometry x="30" y="460" width="70" height="100" as="geometry" />
        </mxCell>
        <mxCell id="RzUvIfsAvGJaE9H9nIL3-22" style="edgeStyle=orthogonalEdgeStyle;rounded=0;orthogonalLoop=1;jettySize=auto;html=1;" edge="1" parent="RzUvIfsAvGJaE9H9nIL3-8" source="RzUvIfsAvGJaE9H9nIL3-6">
          <mxGeometry relative="1" as="geometry">
            <mxPoint x="35" y="150" as="targetPoint" />
          </mxGeometry>
        </mxCell>
        <mxCell id="RzUvIfsAvGJaE9H9nIL3-49" value="回复" style="edgeLabel;html=1;align=center;verticalAlign=middle;resizable=0;points=[];" vertex="1" connectable="0" parent="RzUvIfsAvGJaE9H9nIL3-22">
          <mxGeometry x="-0.208" y="-3" relative="1" as="geometry">
            <mxPoint x="-12" y="5" as="offset" />
          </mxGeometry>
        </mxCell>
        <mxCell id="RzUvIfsAvGJaE9H9nIL3-6" value="VMM" style="rounded=0;whiteSpace=wrap;html=1;fillColor=#dae8fc;strokeColor=#6c8ebf;" vertex="1" parent="RzUvIfsAvGJaE9H9nIL3-8">
          <mxGeometry y="80" width="70" height="20" as="geometry" />
        </mxCell>
        <mxCell id="RzUvIfsAvGJaE9H9nIL3-7" value="" style="group;fillColor=#f8cecc;strokeColor=#b85450;" vertex="1" connectable="0" parent="RzUvIfsAvGJaE9H9nIL3-8">
          <mxGeometry width="70" height="80" as="geometry" />
        </mxCell>
        <mxCell id="RzUvIfsAvGJaE9H9nIL3-5" value="" style="group;fillColor=#f8cecc;strokeColor=#b85450;" vertex="1" connectable="0" parent="RzUvIfsAvGJaE9H9nIL3-7">
          <mxGeometry x="10" y="10" width="50" height="60" as="geometry" />
        </mxCell>
        <mxCell id="RzUvIfsAvGJaE9H9nIL3-1" value="App" style="rounded=0;whiteSpace=wrap;html=1;fillColor=#e1d5e7;strokeColor=#9673a6;" vertex="1" parent="RzUvIfsAvGJaE9H9nIL3-5">
          <mxGeometry width="50" height="30" as="geometry" />
        </mxCell>
        <mxCell id="RzUvIfsAvGJaE9H9nIL3-4" value="OS" style="rounded=0;whiteSpace=wrap;html=1;fillColor=#ffe6cc;strokeColor=#d79b00;" vertex="1" parent="RzUvIfsAvGJaE9H9nIL3-5">
          <mxGeometry y="30" width="50" height="30" as="geometry" />
        </mxCell>
        <mxCell id="RzUvIfsAvGJaE9H9nIL3-38" value="" style="endArrow=classic;html=1;rounded=0;entryX=0;entryY=0.5;entryDx=0;entryDy=0;exitX=0;exitY=0.5;exitDx=0;exitDy=0;" edge="1" parent="RzUvIfsAvGJaE9H9nIL3-8" source="RzUvIfsAvGJaE9H9nIL3-6" target="RzUvIfsAvGJaE9H9nIL3-4">
          <mxGeometry width="50" height="50" relative="1" as="geometry">
            <mxPoint x="35" y="110" as="sourcePoint" />
            <mxPoint x="110" y="50" as="targetPoint" />
            <Array as="points">
              <mxPoint x="-30" y="90" />
              <mxPoint x="-50" y="90" />
              <mxPoint x="-50" y="55" />
            </Array>
          </mxGeometry>
        </mxCell>
        <mxCell id="RzUvIfsAvGJaE9H9nIL3-41" value="&lt;font style=&quot;font-size: 9px;&quot;&gt;模拟数据包&lt;br&gt;到达的中断&lt;/font&gt;" style="edgeLabel;html=1;align=center;verticalAlign=middle;resizable=0;points=[];" vertex="1" connectable="0" parent="RzUvIfsAvGJaE9H9nIL3-38">
          <mxGeometry x="0.0914" y="3" relative="1" as="geometry">
            <mxPoint x="3" y="12" as="offset" />
          </mxGeometry>
        </mxCell>
        <mxCell id="RzUvIfsAvGJaE9H9nIL3-21" style="edgeStyle=orthogonalEdgeStyle;rounded=0;orthogonalLoop=1;jettySize=auto;html=1;" edge="1" parent="1" source="RzUvIfsAvGJaE9H9nIL3-16">
          <mxGeometry relative="1" as="geometry">
            <mxPoint x="90" y="630" as="targetPoint" />
          </mxGeometry>
        </mxCell>
        <mxCell id="RzUvIfsAvGJaE9H9nIL3-16" value="Disk Server" style="rounded=0;whiteSpace=wrap;html=1;fillColor=#cdeb8b;strokeColor=#36393d;" vertex="1" parent="1">
          <mxGeometry x="-10" y="680" width="200" height="40" as="geometry" />
        </mxCell>
        <mxCell id="RzUvIfsAvGJaE9H9nIL3-19" value="" style="endArrow=none;html=1;rounded=0;strokeWidth=10;fillColor=#f8cecc;strokeColor=#b85450;" edge="1" parent="1">
          <mxGeometry width="50" height="50" relative="1" as="geometry">
            <mxPoint x="-100" y="620" as="sourcePoint" />
            <mxPoint x="400" y="620" as="targetPoint" />
          </mxGeometry>
        </mxCell>
        <mxCell id="RzUvIfsAvGJaE9H9nIL3-20" value="&lt;font style=&quot;font-size: 20px;&quot;&gt;LAN&lt;/font&gt;" style="edgeLabel;html=1;align=center;verticalAlign=middle;resizable=0;points=[];" vertex="1" connectable="0" parent="RzUvIfsAvGJaE9H9nIL3-19">
          <mxGeometry x="0.0511" y="-1" relative="1" as="geometry">
            <mxPoint x="-201" y="-21" as="offset" />
          </mxGeometry>
        </mxCell>
        <mxCell id="RzUvIfsAvGJaE9H9nIL3-25" style="edgeStyle=orthogonalEdgeStyle;rounded=0;orthogonalLoop=1;jettySize=auto;html=1;" edge="1" parent="1" source="RzUvIfsAvGJaE9H9nIL3-24">
          <mxGeometry relative="1" as="geometry">
            <mxPoint x="315" y="630" as="targetPoint" />
          </mxGeometry>
        </mxCell>
        <mxCell id="RzUvIfsAvGJaE9H9nIL3-26" value="发送数据包" style="edgeLabel;html=1;align=center;verticalAlign=middle;resizable=0;points=[];" vertex="1" connectable="0" parent="RzUvIfsAvGJaE9H9nIL3-25">
          <mxGeometry x="-0.0531" y="4" relative="1" as="geometry">
            <mxPoint as="offset" />
          </mxGeometry>
        </mxCell>
        <mxCell id="RzUvIfsAvGJaE9H9nIL3-24" value="Client" style="rounded=0;whiteSpace=wrap;html=1;fillColor=#bac8d3;strokeColor=#23445d;" vertex="1" parent="1">
          <mxGeometry x="280" y="680" width="70" height="40" as="geometry" />
        </mxCell>
        <mxCell id="RzUvIfsAvGJaE9H9nIL3-27" value="" style="endArrow=classic;html=1;rounded=0;" edge="1" parent="1">
          <mxGeometry width="50" height="50" relative="1" as="geometry">
            <mxPoint x="310" y="630" as="sourcePoint" />
            <mxPoint x="110" y="630" as="targetPoint" />
          </mxGeometry>
        </mxCell>
        <mxCell id="RzUvIfsAvGJaE9H9nIL3-28" value="发送数据包" style="edgeLabel;html=1;align=center;verticalAlign=middle;resizable=0;points=[];" vertex="1" connectable="0" parent="RzUvIfsAvGJaE9H9nIL3-27">
          <mxGeometry x="-0.1148" y="-2" relative="1" as="geometry">
            <mxPoint x="-2" y="12" as="offset" />
          </mxGeometry>
        </mxCell>
        <mxCell id="RzUvIfsAvGJaE9H9nIL3-31" value="" style="endArrow=classic;html=1;rounded=0;entryX=0.714;entryY=1;entryDx=0;entryDy=0;entryPerimeter=0;" edge="1" parent="1" target="RzUvIfsAvGJaE9H9nIL3-6">
          <mxGeometry width="50" height="50" relative="1" as="geometry">
            <mxPoint x="80" y="610" as="sourcePoint" />
            <mxPoint x="80" y="570" as="targetPoint" />
          </mxGeometry>
        </mxCell>
        <mxCell id="RzUvIfsAvGJaE9H9nIL3-35" value="&lt;font style=&quot;font-size: 10px;&quot;&gt;数据包到达&lt;br&gt;Primary VMM&lt;/font&gt;" style="edgeLabel;html=1;align=center;verticalAlign=middle;resizable=0;points=[];" vertex="1" connectable="0" parent="RzUvIfsAvGJaE9H9nIL3-31">
          <mxGeometry x="0.0914" relative="1" as="geometry">
            <mxPoint x="40" y="9" as="offset" />
          </mxGeometry>
        </mxCell>
        <mxCell id="RzUvIfsAvGJaE9H9nIL3-39" value="Primary" style="text;html=1;strokeColor=none;fillColor=none;align=center;verticalAlign=middle;whiteSpace=wrap;rounded=0;fontStyle=1" vertex="1" parent="1">
          <mxGeometry x="30" y="430" width="60" height="30" as="geometry" />
        </mxCell>
        <mxCell id="RzUvIfsAvGJaE9H9nIL3-40" value="Backup" style="text;html=1;strokeColor=none;fillColor=none;align=center;verticalAlign=middle;whiteSpace=wrap;rounded=0;fontStyle=1" vertex="1" parent="1">
          <mxGeometry x="250" y="430" width="60" height="30" as="geometry" />
        </mxCell>
        <mxCell id="RzUvIfsAvGJaE9H9nIL3-44" style="edgeStyle=orthogonalEdgeStyle;rounded=0;orthogonalLoop=1;jettySize=auto;html=1;entryX=0;entryY=0.5;entryDx=0;entryDy=0;strokeWidth=3;shape=link;strokeColor=default;" edge="1" parent="1" source="RzUvIfsAvGJaE9H9nIL3-6" target="RzUvIfsAvGJaE9H9nIL3-10">
          <mxGeometry relative="1" as="geometry" />
        </mxCell>
        <mxCell id="RzUvIfsAvGJaE9H9nIL3-45" value="&lt;font style=&quot;font-size: 9px;&quot;&gt;通过网络送给&lt;br&gt;Backup虚机所在的VMM&lt;/font&gt;" style="edgeLabel;html=1;align=center;verticalAlign=middle;resizable=0;points=[];" vertex="1" connectable="0" parent="RzUvIfsAvGJaE9H9nIL3-44">
          <mxGeometry x="-0.0756" y="1" relative="1" as="geometry">
            <mxPoint x="21" y="-19" as="offset" />
          </mxGeometry>
        </mxCell>
        <mxCell id="RzUvIfsAvGJaE9H9nIL3-50" value="&lt;b&gt;Log Channel&lt;/b&gt;" style="edgeLabel;html=1;align=center;verticalAlign=middle;resizable=0;points=[];" vertex="1" connectable="0" parent="RzUvIfsAvGJaE9H9nIL3-44">
          <mxGeometry x="-0.06" y="-1" relative="1" as="geometry">
            <mxPoint x="-30" y="13" as="offset" />
          </mxGeometry>
        </mxCell>
        <mxCell id="RzUvIfsAvGJaE9H9nIL3-52" value="&lt;font style=&quot;font-size: 9px;&quot;&gt;Bakcup回复&lt;/font&gt;" style="edgeLabel;html=1;align=center;verticalAlign=middle;resizable=0;points=[];" vertex="1" connectable="0" parent="RzUvIfsAvGJaE9H9nIL3-44">
          <mxGeometry x="0.5004" y="-3" relative="1" as="geometry">
            <mxPoint y="9" as="offset" />
          </mxGeometry>
        </mxCell>
      </root>
    </mxGraphModel>
  </diagram>
</mxfile>
